<?xml version="1.0" encoding="utf-8"?>
<!-- Generator: Adobe Illustrator 25.2.0, SVG Export Plug-In . SVG Version: 6.00 Build 0)  -->
<svg version="1.1" id="Layer_1" xmlns="http://www.w3.org/2000/svg" xmlns:xlink="http://www.w3.org/1999/xlink" x="0px" y="0px"
	 viewBox="0 0 150.9 37.9" style="enable-background:new 0 0 150.9 37.9;" xml:space="preserve">
<style type="text/css">
	.st0{fill-rule:evenodd;clip-rule:evenodd;fill:#FFFFFF;}
	.st1{fill:#FFFFFF;}
	.st2{fill:#2881C3;}
</style>
<g>
	<g>
		<polygon class="st0" points="18.2,0 0,10.4 0,31.4 11.2,37.8 12.6,35.3 2.8,29.7 2.8,12.1 18.2,3.3 33.6,12.1 33.6,29.7 
			23.7,35.4 25.1,37.9 36.4,31.4 36.4,10.4 		"/>
		<path class="st0" d="M29.6,13.9c-0.4-0.6-1.1-0.8-1.8-0.4L18.5,19l-10-6c-0.6-0.4-1.4-0.2-1.8,0.4c-0.4,0.6-0.2,1.4,0.4,1.8l10,6
			l0,0v10.9c0,0.7,0.6,1.3,1.3,1.3c0.7,0,1.3-0.6,1.3-1.3V21.2l9.3-5.6C29.7,15.3,29.9,14.5,29.6,13.9z"/>
	</g>
	<g>
		<path class="st1" d="M52.2,22.1v4.2h-1.3V15.1H54c1.2,0,2.1,0.3,2.8,0.9c0.7,0.6,1,1.4,1,2.5c0,1.1-0.4,1.9-1.1,2.6
			c-0.7,0.7-1.7,1-3,1H52.2z M52.2,16.3v4.6h1.4c0.9,0,1.6-0.2,2.1-0.6c0.5-0.4,0.7-1,0.7-1.8c0-1.5-0.9-2.2-2.6-2.2H52.2z"/>
		<path class="st2" d="M69,26.5c-0.3,0-0.6,0-0.8-0.1c-0.2-0.1-0.4-0.2-0.6-0.3c-0.2-0.1-0.4-0.3-0.6-0.5c-0.2-0.2-0.4-0.5-0.6-0.7
			c-0.2,0.2-0.4,0.4-0.7,0.6c-0.3,0.2-0.6,0.4-0.9,0.6c-0.3,0.2-0.7,0.3-1.1,0.4c-0.4,0.1-0.8,0.1-1.3,0.1c-0.6,0-1.1-0.1-1.5-0.2
			c-0.5-0.1-0.9-0.3-1.2-0.6c-0.3-0.3-0.6-0.6-0.8-1c-0.2-0.4-0.3-0.9-0.3-1.4c0-0.8,0.2-1.5,0.7-2c0.5-0.6,1.1-1,1.9-1.4
			c-0.2-0.1-0.3-0.2-0.5-0.4c-0.2-0.2-0.3-0.3-0.4-0.5c-0.1-0.2-0.2-0.4-0.3-0.6c-0.1-0.2-0.1-0.5-0.1-0.8c0-0.4,0.1-0.8,0.2-1.1
			c0.1-0.3,0.4-0.6,0.6-0.8c0.3-0.2,0.6-0.4,0.9-0.5c0.4-0.1,0.7-0.2,1.1-0.2c0.4,0,0.8,0.1,1.1,0.2c0.3,0.1,0.6,0.3,0.9,0.5
			c0.2,0.2,0.4,0.5,0.6,0.8c0.1,0.3,0.2,0.6,0.2,1c0,0.6-0.2,1.1-0.5,1.6c-0.4,0.4-0.9,0.8-1.6,1.1c0.4,0.1,0.7,0.3,1,0.5
			c0.3,0.2,0.6,0.4,0.8,0.7c0.2,0.3,0.5,0.5,0.7,0.8c0.2,0.3,0.4,0.6,0.6,0.9c0.4-0.6,0.7-1.2,1-1.9c0.2-0.7,0.3-1.5,0.3-2.2
			c0-0.2,0-0.4,0-0.6c0-0.2-0.1-0.3-0.1-0.5h1.2c0,0.2,0.1,0.3,0.1,0.5c0,0.2,0,0.3,0,0.6c0,0.5,0,1-0.1,1.4
			c-0.1,0.5-0.2,0.9-0.4,1.4c-0.2,0.5-0.4,0.9-0.6,1.3c-0.2,0.4-0.5,0.8-0.7,1.1c0.2,0.2,0.3,0.5,0.5,0.7c0.2,0.2,0.3,0.3,0.5,0.5
			c0.2,0.1,0.3,0.2,0.5,0.3c0.2,0.1,0.4,0.1,0.6,0.1c0.2,0,0.3,0,0.5-0.1s0.3-0.1,0.5-0.2v1.2c-0.2,0.1-0.4,0.1-0.6,0.2
			C69.4,26.5,69.2,26.5,69,26.5z M62.4,25.4c0.4,0,0.8,0,1.1-0.1c0.3-0.1,0.6-0.2,0.9-0.3c0.3-0.1,0.5-0.3,0.8-0.5
			c0.2-0.2,0.4-0.4,0.6-0.6c-0.3-0.5-0.6-0.9-0.9-1.3c-0.3-0.4-0.5-0.7-0.8-0.9c-0.3-0.3-0.6-0.5-0.9-0.7c-0.3-0.2-0.7-0.4-1.1-0.5
			c-0.3,0.1-0.6,0.3-0.9,0.4c-0.3,0.2-0.5,0.3-0.7,0.6c-0.2,0.2-0.4,0.5-0.5,0.8c-0.1,0.3-0.2,0.6-0.2,1c0,0.4,0.1,0.7,0.2,0.9
			c0.1,0.3,0.3,0.5,0.5,0.7c0.2,0.2,0.5,0.3,0.8,0.4C61.7,25.4,62.1,25.4,62.4,25.4z M64.4,17.4c0-0.3,0-0.5-0.1-0.7
			c-0.1-0.2-0.2-0.3-0.4-0.5c-0.1-0.1-0.3-0.2-0.5-0.3C63.2,16,63,16,62.8,16c-0.5,0-0.9,0.1-1.2,0.4c-0.3,0.3-0.5,0.7-0.5,1.1
			c0,0.2,0,0.4,0.1,0.6c0.1,0.2,0.2,0.4,0.3,0.5c0.1,0.2,0.3,0.3,0.4,0.4c0.2,0.1,0.3,0.2,0.5,0.3c0.7-0.2,1.1-0.5,1.5-0.8
			C64.2,18.3,64.4,17.9,64.4,17.4z"/>
		<path class="st1" d="M71.8,26.3V15.1H75c1,0,1.7,0.2,2.3,0.7c0.6,0.5,0.9,1.1,0.9,1.9c0,0.6-0.2,1.2-0.5,1.7
			c-0.3,0.5-0.8,0.8-1.4,1v0c0.8,0.1,1.4,0.4,1.8,0.9c0.5,0.5,0.7,1.1,0.7,1.9c0,1-0.3,1.7-1,2.3c-0.7,0.6-1.6,0.9-2.6,0.9H71.8z
			 M73.1,16.3v3.6h1.3c0.7,0,1.3-0.2,1.7-0.5c0.4-0.3,0.6-0.8,0.6-1.5c0-1.1-0.7-1.6-2.2-1.6H73.1z M73.1,21.1v4h1.8
			c0.8,0,1.4-0.2,1.8-0.5c0.4-0.4,0.6-0.9,0.6-1.5c0-1.3-0.9-2-2.7-2H73.1z"/>
		<path class="st1" d="M84.8,25.9v-1.5c0.2,0.2,0.4,0.3,0.6,0.4c0.2,0.1,0.5,0.2,0.8,0.3c0.3,0.1,0.5,0.2,0.8,0.2
			c0.3,0,0.5,0.1,0.8,0.1c0.8,0,1.4-0.1,1.8-0.5c0.4-0.3,0.6-0.7,0.6-1.3c0-0.3-0.1-0.6-0.2-0.8c-0.1-0.2-0.3-0.4-0.6-0.6
			c-0.2-0.2-0.5-0.4-0.8-0.5c-0.3-0.2-0.7-0.3-1-0.5c-0.4-0.2-0.8-0.4-1.1-0.6c-0.3-0.2-0.6-0.4-0.9-0.7c-0.3-0.2-0.4-0.5-0.6-0.8
			c-0.1-0.3-0.2-0.7-0.2-1.1c0-0.5,0.1-1,0.3-1.3c0.2-0.4,0.5-0.7,0.9-0.9c0.4-0.2,0.8-0.4,1.2-0.5c0.5-0.1,0.9-0.2,1.4-0.2
			c1.1,0,1.9,0.1,2.4,0.4v1.5c-0.7-0.5-1.5-0.7-2.6-0.7c-0.3,0-0.6,0-0.9,0.1c-0.3,0.1-0.5,0.2-0.8,0.3c-0.2,0.1-0.4,0.3-0.5,0.5
			c-0.1,0.2-0.2,0.5-0.2,0.8c0,0.3,0.1,0.5,0.2,0.7c0.1,0.2,0.3,0.4,0.5,0.6c0.2,0.2,0.5,0.3,0.8,0.5c0.3,0.2,0.6,0.3,1,0.5
			c0.4,0.2,0.8,0.4,1.1,0.6c0.4,0.2,0.7,0.5,0.9,0.7c0.3,0.3,0.5,0.6,0.6,0.9c0.2,0.3,0.2,0.7,0.2,1.1c0,0.6-0.1,1-0.3,1.4
			c-0.2,0.4-0.5,0.7-0.9,0.9c-0.4,0.2-0.8,0.4-1.3,0.5c-0.5,0.1-1,0.2-1.5,0.2c-0.2,0-0.4,0-0.7,0c-0.3,0-0.5-0.1-0.8-0.1
			c-0.3-0.1-0.5-0.1-0.8-0.2C85.2,26.1,85,26,84.8,25.9z"/>
		<path class="st1" d="M97,26.3c-0.3,0.2-0.7,0.2-1.2,0.2c-1.4,0-2.1-0.8-2.1-2.3v-4.7h-1.4v-1.1h1.4v-2L95,16v2.4h2v1.1h-2v4.5
			c0,0.5,0.1,0.9,0.3,1.2c0.2,0.2,0.5,0.3,0.9,0.3c0.3,0,0.6-0.1,0.8-0.3V26.3z"/>
		<path class="st1" d="M102.7,19.6c-0.2-0.2-0.5-0.3-1-0.3c-0.5,0-1,0.3-1.4,0.8c-0.4,0.5-0.6,1.2-0.6,2.1v4.1h-1.3v-8h1.3V20h0
			c0.2-0.6,0.5-1,0.8-1.3c0.4-0.3,0.8-0.5,1.3-0.5c0.3,0,0.6,0,0.8,0.1V19.6z"/>
		<path class="st1" d="M109.8,26.3h-1.3v-1.3h0c-0.6,1-1.4,1.4-2.5,1.4c-0.8,0-1.4-0.2-1.9-0.6c-0.5-0.4-0.7-1-0.7-1.7
			c0-1.5,0.9-2.4,2.6-2.6l2.4-0.3c0-1.4-0.6-2-1.7-2c-1,0-1.8,0.3-2.6,1v-1.3c0.8-0.5,1.7-0.8,2.7-0.8c1.9,0,2.8,1,2.8,3V26.3z
			 M108.5,22.3l-1.9,0.3c-0.6,0.1-1,0.2-1.3,0.4c-0.3,0.2-0.5,0.6-0.5,1.1c0,0.4,0.1,0.7,0.4,1c0.3,0.2,0.7,0.4,1.1,0.4
			c0.6,0,1.2-0.2,1.6-0.7c0.4-0.4,0.6-1,0.6-1.7V22.3z"/>
		<path class="st1" d="M115.8,26.3c-0.3,0.2-0.7,0.2-1.2,0.2c-1.4,0-2.1-0.8-2.1-2.3v-4.7h-1.4v-1.1h1.4v-2l1.3-0.4v2.4h2v1.1h-2
			v4.5c0,0.5,0.1,0.9,0.3,1.2c0.2,0.2,0.5,0.3,0.9,0.3c0.3,0,0.6-0.1,0.8-0.3V26.3z"/>
		<path class="st1" d="M128,18.3l-2.4,8h-1.3l-1.7-5.7c-0.1-0.2-0.1-0.5-0.1-0.7h0c0,0.2-0.1,0.4-0.2,0.7l-1.8,5.8h-1.3l-2.4-8h1.3
			l1.7,6c0.1,0.2,0.1,0.4,0.1,0.7h0.1c0-0.2,0.1-0.5,0.1-0.7l1.8-6h1.2l1.7,6c0.1,0.2,0.1,0.4,0.1,0.7h0.1c0-0.2,0.1-0.4,0.1-0.7
			l1.6-6H128z"/>
		<path class="st1" d="M132.7,26.5c-1.2,0-2.1-0.4-2.8-1.1c-0.7-0.7-1.1-1.7-1.1-3c0-1.3,0.4-2.4,1.1-3.2c0.7-0.8,1.7-1.1,3-1.1
			c1.2,0,2.1,0.4,2.8,1.1c0.7,0.7,1,1.8,1,3.1c0,1.3-0.4,2.3-1.1,3.1C134.9,26.1,133.9,26.5,132.7,26.5z M132.8,19.2
			c-0.8,0-1.5,0.3-2,0.8c-0.5,0.6-0.7,1.3-0.7,2.3c0,1,0.2,1.7,0.7,2.2c0.5,0.5,1.1,0.8,1.9,0.8c0.8,0,1.5-0.3,1.9-0.8
			c0.4-0.5,0.7-1.3,0.7-2.3c0-1-0.2-1.8-0.7-2.3C134.2,19.5,133.6,19.2,132.8,19.2z"/>
		<path class="st1" d="M142.8,19.6c-0.2-0.2-0.5-0.3-1-0.3c-0.5,0-1,0.3-1.4,0.8s-0.6,1.2-0.6,2.1v4.1h-1.3v-8h1.3V20h0
			c0.2-0.6,0.5-1,0.8-1.3c0.4-0.3,0.8-0.5,1.3-0.5c0.3,0,0.6,0,0.8,0.1V19.6z"/>
		<path class="st1" d="M150.9,26.3h-1.8l-3.5-3.8h0v3.8h-1.3V14.5h1.3V22h0l3.4-3.7h1.7l-3.7,3.9L150.9,26.3z"/>
	</g>
</g>
</svg>
