<?xml version="1.0" standalone="no"?>
<!DOCTYPE svg PUBLIC "-//W3C//DTD SVG 20010904//EN"
 "http://www.w3.org/TR/2001/REC-SVG-20010904/DTD/svg10.dtd">
<svg version="1.0" xmlns="http://www.w3.org/2000/svg"
 width="608.000000pt" height="608.000000pt" viewBox="0 0 608.000000 608.000000"
 preserveAspectRatio="xMidYMid meet">
<metadata>
Created by potrace 1.14, written by Peter Selinger 2001-2017
</metadata>
<g transform="translate(0.000000,608.000000) scale(0.100000,-0.100000)"
fill="#000000" stroke="none">
<path d="M2979 6046 c-31 -19 -81 -48 -110 -64 -92 -51 -303 -172 -319 -182
-8 -5 -51 -30 -95 -55 -44 -25 -111 -63 -150 -85 -38 -22 -81 -46 -95 -53 -14
-6 -27 -14 -30 -17 -3 -3 -63 -39 -135 -79 -143 -81 -133 -75 -333 -190 -77
-45 -145 -81 -150 -81 -6 0 -12 -4 -14 -8 -1 -5 -39 -28 -83 -52 -44 -24 -81
-47 -83 -52 -2 -4 -8 -8 -14 -8 -5 0 -40 -18 -76 -39 -37 -21 -94 -54 -127
-72 -33 -18 -80 -45 -104 -61 -25 -15 -51 -28 -58 -28 -7 0 -13 -4 -13 -8 0
-4 -26 -21 -57 -36 -32 -16 -65 -34 -73 -41 -8 -7 -40 -26 -70 -42 -30 -16
-119 -66 -197 -111 -78 -45 -146 -82 -152 -82 -5 0 -11 -4 -13 -8 -3 -7 -99
-63 -238 -139 -25 -14 -51 -30 -57 -35 -10 -8 -13 -359 -13 -1694 l0 -1683 33
-17 c17 -9 40 -24 51 -33 10 -9 19 -14 20 -12 0 3 35 -15 76 -39 41 -23 89
-50 105 -59 17 -9 32 -18 35 -21 6 -6 86 -50 117 -65 13 -5 23 -13 23 -17 0
-5 4 -8 9 -8 9 0 106 -53 161 -88 14 -9 27 -17 30 -17 3 0 37 -19 75 -41 39
-23 97 -56 130 -75 33 -18 62 -37 63 -41 2 -4 8 -8 14 -8 5 0 55 -27 111 -59
56 -32 245 -140 420 -240 278 -159 320 -180 332 -167 8 8 15 19 15 24 0 5 7
15 15 22 8 7 13 16 10 20 -3 4 2 13 10 20 8 7 15 16 15 21 0 4 14 32 31 61 17
29 51 89 75 134 l44 83 -152 87 c-84 48 -171 97 -193 109 -22 13 -116 66 -210
120 -188 108 -222 127 -280 160 -22 13 -110 63 -195 112 -85 49 -162 92 -170
96 -8 4 -36 20 -61 35 -25 15 -105 61 -177 102 l-132 75 0 1411 0 1412 105 61
c57 34 109 61 115 61 5 0 10 5 10 10 0 6 4 10 9 10 4 0 252 140 550 310 298
171 546 310 551 310 6 0 10 5 10 10 0 6 4 10 8 10 4 0 189 104 411 230 221
127 407 230 412 230 5 0 9 5 9 10 0 6 4 10 9 10 5 0 48 23 96 50 48 28 89 50
91 50 2 0 22 11 43 25 38 26 39 26 75 9 20 -10 36 -20 36 -24 0 -3 20 -14 45
-25 25 -11 45 -23 45 -27 0 -5 4 -8 9 -8 5 0 48 -22 96 -50 48 -27 91 -50 96
-50 5 0 9 -3 9 -8 0 -4 21 -18 48 -31 26 -14 55 -31 65 -39 9 -9 17 -12 17 -9
0 4 25 -9 55 -28 30 -19 59 -35 65 -35 5 0 10 -3 10 -8 0 -4 20 -16 45 -27 25
-11 45 -23 45 -27 0 -5 6 -8 14 -8 7 0 19 -7 26 -15 6 -8 15 -13 18 -12 4 1
35 -15 70 -36 35 -20 67 -37 73 -37 5 0 9 -4 9 -8 0 -5 16 -14 35 -22 19 -8
35 -17 35 -21 0 -4 8 -9 18 -12 9 -4 37 -18 62 -33 25 -15 65 -38 90 -52 25
-14 119 -68 210 -120 91 -52 185 -106 210 -119 25 -14 61 -35 80 -47 66 -40
115 -67 143 -79 15 -6 27 -15 27 -19 0 -4 4 -8 9 -8 9 0 106 -53 161 -88 14
-9 28 -15 33 -14 4 1 7 -2 7 -8 0 -5 4 -10 9 -10 5 0 80 -41 167 -91 88 -50
177 -102 199 -114 l40 -23 2 -1414 3 -1413 -33 -19 c-17 -10 -50 -29 -72 -41
-22 -13 -80 -46 -130 -75 -49 -29 -105 -61 -124 -72 -93 -53 -387 -222 -411
-236 -56 -33 -255 -147 -270 -155 -8 -4 -33 -18 -55 -32 -22 -14 -52 -30 -67
-36 -16 -6 -28 -15 -28 -20 0 -5 -4 -9 -10 -9 -5 0 -64 -32 -132 -71 -68 -40
-153 -89 -190 -110 l-66 -39 49 -85 c27 -47 49 -90 49 -95 0 -4 3 -10 8 -12 4
-2 16 -21 27 -43 11 -22 36 -68 56 -102 34 -60 36 -61 60 -49 13 7 159 91 324
186 165 95 325 186 355 203 30 16 66 38 80 47 14 9 50 31 80 47 49 27 83 47
218 124 17 11 47 27 65 37 17 11 175 101 350 202 l317 183 0 1683 0 1684 -37
23 c-21 13 -69 41 -108 62 -38 21 -87 49 -107 62 -21 13 -42 23 -48 23 -5 0
-10 4 -10 8 0 4 -12 13 -27 19 -16 7 -50 25 -78 42 -27 16 -66 38 -85 49 -35
19 -50 28 -170 97 -69 40 -142 81 -175 99 -11 6 -22 13 -25 16 -5 5 -39 24
-110 62 -19 10 -42 23 -50 28 -33 21 -222 130 -226 130 -2 0 -38 20 -80 45
-41 25 -80 45 -85 45 -5 0 -9 5 -9 10 0 6 -5 10 -10 10 -6 0 -117 61 -248 136
-130 75 -262 150 -292 167 -30 17 -68 39 -85 49 -16 9 -50 29 -75 43 -25 14
-58 33 -75 43 -16 9 -93 53 -170 97 -77 44 -148 84 -157 90 -9 5 -29 17 -45
26 -120 66 -151 84 -175 100 -14 11 -29 19 -32 19 -2 0 -32 16 -65 35 -32 19
-61 35 -63 35 -2 -1 -28 -16 -59 -34z"/>
<path d="M1323 4020 c-56 -13 -111 -56 -138 -110 -39 -76 -21 -180 43 -239 31
-28 209 -142 340 -216 16 -9 155 -92 192 -115 8 -5 62 -37 120 -71 58 -34 113
-69 123 -77 9 -8 17 -11 17 -7 0 4 8 1 18 -7 14 -13 426 -263 457 -278 31 -15
342 -205 354 -216 13 -12 15 -143 16 -911 1 -809 2 -901 17 -928 68 -127 220
-160 326 -70 32 27 58 71 68 115 3 18 6 763 3 925 0 6 0 57 0 115 1 58 1 112
0 120 0 8 0 62 0 120 1 58 1 112 0 120 0 8 0 67 0 130 1 63 1 124 1 135 0 11
0 43 0 71 l0 51 87 54 c48 30 95 57 105 61 10 4 24 12 31 18 6 6 59 39 117 73
58 33 107 65 108 69 2 4 8 8 12 8 5 0 170 97 367 216 197 119 374 226 393 236
19 11 42 26 51 34 8 8 18 14 22 14 21 0 259 155 279 183 21 27 46 105 40 128
0 4 -3 19 -6 35 -13 69 -93 132 -175 138 -70 5 -92 -5 -314 -138 -98 -58 -180
-106 -183 -106 -3 0 -10 -5 -17 -10 -13 -12 -252 -155 -277 -167 -8 -3 -50
-28 -93 -55 -43 -26 -80 -48 -81 -48 -2 0 -56 -31 -120 -70 -65 -38 -119 -70
-122 -70 -3 0 -17 -8 -32 -19 -40 -27 -86 -55 -92 -56 -3 0 -16 -8 -30 -17
-14 -9 -78 -48 -144 -86 l-118 -70 -167 100 c-91 55 -177 107 -191 116 -14 9
-27 17 -30 17 -3 0 -16 8 -30 17 -74 47 -141 88 -144 88 -3 0 -41 23 -85 50
-44 28 -85 50 -90 50 -5 0 -11 3 -13 8 -2 6 -293 183 -372 226 -11 6 -25 15
-30 19 -18 13 -307 187 -312 187 -2 0 -30 17 -61 37 -32 20 -59 35 -59 32 -1
-2 -10 3 -20 12 -36 31 -104 43 -161 29z"/>
</g>
</svg>
